<svg xmlns="http://www.w3.org/2000/svg" xmlns:xlink="http://www.w3.org/1999/xlink" width="500" zoomAndPan="magnify" viewBox="0 0 375 374.999991" height="500" preserveAspectRatio="xMidYMid meet" version="1.0"><defs><g/></defs><g fill="#000000" fill-opacity="1"><g transform="translate(94.155779, 162.226014)"><g><path d="M 6.257812 0 L 9.804688 0 L 9.804688 -20.074219 L 15.90625 -20.074219 L 15.90625 -23.125 L 0.15625 -23.125 L 0.15625 -20.074219 L 6.257812 -20.074219 Z M 6.257812 0 "/></g></g></g><g fill="#000000" fill-opacity="1"><g transform="translate(116.597953, 162.226014)"><g><path d="M 0.375 0 L 4.078125 0 L 5.695312 -5.476562 L 14.101562 -5.476562 L 15.71875 0 L 19.421875 0 L 12.199219 -23.125 L 7.59375 -23.125 Z M 6.535156 -8.433594 L 9.460938 -18.363281 L 9.867188 -19.980469 L 9.929688 -19.980469 L 10.332031 -18.363281 L 13.257812 -8.433594 Z M 6.535156 -8.433594 "/></g></g></g><g fill="#000000" fill-opacity="1"><g transform="translate(142.806263, 162.226014)"><g><path d="M 0.375 0 L 4.417969 0 L 8.777344 -8.683594 L 9.398438 -10.210938 L 9.429688 -10.210938 L 10.054688 -8.746094 L 14.410156 0 L 18.457031 0 L 12.167969 -12.015625 L 17.929688 -23.125 L 13.914062 -23.125 L 10.023438 -15.25 L 9.460938 -13.820312 L 9.398438 -13.820312 L 8.839844 -15.25 L 4.949219 -23.125 L 0.933594 -23.125 L 6.660156 -11.984375 Z M 0.375 0 "/></g></g></g><g fill="#000000" fill-opacity="1"><g transform="translate(168.018574, 162.226014)"><g><path d="M 2.582031 0 L 6.132812 0 L 6.132812 -23.125 L 2.582031 -23.125 Z M 2.582031 0 "/></g></g></g><g fill="#000000" fill-opacity="1"><g transform="translate(183.11523, 162.226014)"><g><path d="M 2.582031 0 L 6.101562 0 L 6.101562 -15.15625 L 6.039062 -17.492188 L 6.070312 -17.492188 L 6.441406 -16.464844 L 11.328125 -3.238281 L 14.253906 -3.238281 L 19.140625 -16.464844 L 19.515625 -17.492188 L 19.578125 -17.492188 L 19.515625 -15.15625 L 19.515625 0 L 23 0 L 23 -23.125 L 18.363281 -23.125 L 13.195312 -8.839844 L 12.824219 -7.59375 L 12.761719 -7.59375 L 12.417969 -8.839844 L 7.253906 -23.125 L 2.582031 -23.125 Z M 2.582031 0 "/></g></g></g><g fill="#000000" fill-opacity="1"><g transform="translate(215.081678, 162.226014)"><g><path d="M 0.375 0 L 4.078125 0 L 5.695312 -5.476562 L 14.101562 -5.476562 L 15.71875 0 L 19.421875 0 L 12.199219 -23.125 L 7.59375 -23.125 Z M 6.535156 -8.433594 L 9.460938 -18.363281 L 9.867188 -19.980469 L 9.929688 -19.980469 L 10.332031 -18.363281 L 13.257812 -8.433594 Z M 6.535156 -8.433594 "/></g></g></g><g fill="#000000" fill-opacity="1"><g transform="translate(241.289985, 162.226014)"><g><path d="M 6.257812 0 L 9.804688 0 L 9.804688 -20.074219 L 15.90625 -20.074219 L 15.90625 -23.125 L 0.15625 -23.125 L 0.15625 -20.074219 L 6.257812 -20.074219 Z M 6.257812 0 "/></g></g></g><g fill="#000000" fill-opacity="1"><g transform="translate(263.732156, 162.226014)"><g><path d="M 2.582031 0 L 16.183594 0 L 16.183594 -3.050781 L 6.132812 -3.050781 L 6.132812 -10.332031 L 14.941406 -10.332031 L 14.941406 -13.289062 L 6.132812 -13.289062 L 6.132812 -20.074219 L 16.058594 -20.074219 L 16.058594 -23.125 L 2.582031 -23.125 Z M 2.582031 0 "/></g></g></g><g fill="#000000" fill-opacity="1"><g transform="translate(113.358721, 183.806515)"><g><path d="M 7.65625 0 L 9.429688 0 L 9.429688 -11.5625 L 7.65625 -11.5625 L 7.65625 -6.613281 L 3.066406 -6.613281 L 3.066406 -11.5625 L 1.292969 -11.5625 L 1.292969 0 L 3.066406 0 L 3.066406 -5.089844 L 7.65625 -5.089844 Z M 7.65625 0 "/></g></g></g><g fill="#000000" fill-opacity="1"><g transform="translate(130.571965, 183.806515)"><g><path d="M 1.292969 0 L 3.066406 0 L 3.066406 -11.5625 L 1.292969 -11.5625 Z M 1.292969 0 "/></g></g></g><g fill="#000000" fill-opacity="1"><g transform="translate(141.420131, 183.806515)"><g><path d="M 1.292969 0 L 3.066406 0 L 3.066406 -4.480469 L 4.855469 -4.480469 C 6.164062 -4.480469 6.722656 -3.96875 6.863281 -3.050781 L 7.066406 -1.835938 C 7.222656 -0.933594 7.34375 -0.359375 7.46875 0 L 9.273438 0 C 9.089844 -0.375 8.949219 -0.933594 8.839844 -1.664062 L 8.667969 -2.910156 C 8.511719 -4.140625 8 -5.089844 6.925781 -5.324219 L 6.925781 -5.339844 C 8.171875 -5.617188 8.964844 -6.628906 8.964844 -8.25 L 8.964844 -8.265625 C 8.964844 -10.472656 7.71875 -11.5625 5.292969 -11.5625 L 1.292969 -11.5625 Z M 3.066406 -6.023438 L 3.066406 -10.039062 L 5.230469 -10.039062 C 6.550781 -10.039062 7.191406 -9.367188 7.191406 -8.203125 L 7.191406 -8.140625 C 7.191406 -6.597656 6.347656 -6.023438 5.074219 -6.023438 Z M 3.066406 -6.023438 "/></g></g></g><g fill="#000000" fill-opacity="1"><g transform="translate(157.606244, 183.806515)"><g><path d="M 1.292969 0 L 8.09375 0 L 8.09375 -1.523438 L 3.066406 -1.523438 L 3.066406 -5.167969 L 7.46875 -5.167969 L 7.46875 -6.644531 L 3.066406 -6.644531 L 3.066406 -10.039062 L 8.03125 -10.039062 L 8.03125 -11.5625 L 1.292969 -11.5625 Z M 1.292969 0 "/></g></g></g><g fill="#000000" fill-opacity="1"><g transform="translate(172.656291, 183.806515)"><g/></g></g><g fill="#000000" fill-opacity="1"><g transform="translate(183.348825, 183.806515)"><g><path d="M 0.1875 0 L 2.039062 0 L 2.847656 -2.738281 L 7.050781 -2.738281 L 7.859375 0 L 9.710938 0 L 6.101562 -11.5625 L 3.796875 -11.5625 Z M 3.269531 -4.21875 L 4.730469 -9.183594 L 4.933594 -9.992188 L 4.964844 -9.992188 L 5.167969 -9.183594 L 6.628906 -4.21875 Z M 3.269531 -4.21875 "/></g></g></g><g fill="#000000" fill-opacity="1"><g transform="translate(199.752809, 183.806515)"><g/></g></g><g fill="#000000" fill-opacity="1"><g transform="translate(210.445343, 183.806515)"><g><path d="M 3.128906 0 L 4.902344 0 L 4.902344 -10.039062 L 7.953125 -10.039062 L 7.953125 -11.5625 L 0.078125 -11.5625 L 0.078125 -10.039062 L 3.128906 -10.039062 Z M 3.128906 0 "/></g></g></g><g fill="#000000" fill-opacity="1"><g transform="translate(224.96627, 183.806515)"><g><path d="M 0.1875 0 L 2.039062 0 L 2.847656 -2.738281 L 7.050781 -2.738281 L 7.859375 0 L 9.710938 0 L 6.101562 -11.5625 L 3.796875 -11.5625 Z M 3.269531 -4.21875 L 4.730469 -9.183594 L 4.933594 -9.992188 L 4.964844 -9.992188 L 5.167969 -9.183594 L 6.628906 -4.21875 Z M 3.269531 -4.21875 "/></g></g></g><g fill="#000000" fill-opacity="1"><g transform="translate(241.370253, 183.806515)"><g><path d="M 0.1875 0 L 2.210938 0 L 4.386719 -4.34375 L 4.699219 -5.105469 L 4.714844 -5.105469 L 5.027344 -4.375 L 7.207031 0 L 9.230469 0 L 6.085938 -6.007812 L 8.964844 -11.5625 L 6.957031 -11.5625 L 5.011719 -7.625 L 4.730469 -6.910156 L 4.699219 -6.910156 L 4.417969 -7.625 L 2.472656 -11.5625 L 0.46875 -11.5625 L 3.332031 -5.992188 Z M 0.1875 0 "/></g></g></g><g fill="#000000" fill-opacity="1"><g transform="translate(257.276235, 183.806515)"><g><path d="M 1.292969 0 L 3.066406 0 L 3.066406 -11.5625 L 1.292969 -11.5625 Z M 1.292969 0 "/></g></g></g></svg>